<svg width="48" height="48" viewBox="0 0 48 48" fill="none" xmlns="http://www.w3.org/2000/svg">
<rect width="48" height="48" fill="white"/>
<rect x="8.19495" y="23.0032" width="30.61" height="3.435" rx="1.7175" stroke="#DBCCA9" stroke-width="2"/>
<path d="M20.1031 8.69849C16.4432 9.9129 13.9428 11.1691 11.9546 14.4732C10.5396 16.8247 10.0999 20.5768 9.96741 23" stroke="#DBCCA9" stroke-width="2"/>
<path d="M26.8968 8.69849C30.5567 9.9129 33.0571 11.1691 35.0453 14.4732C36.4603 16.8247 36.9 20.5768 37.0325 23" stroke="#DBCCA9" stroke-width="2"/>
<path d="M18.7633 18.5494C18.7633 19.1017 19.211 19.5494 19.7633 19.5494C20.3156 19.5494 20.7633 19.1017 20.7633 18.5494H18.7633ZM25.8967 18.5494C25.8967 19.1017 26.3445 19.5494 26.8967 19.5494C27.449 19.5494 27.8967 19.1017 27.8967 18.5494H25.8967ZM20.7633 18.5494V9H18.7633V18.5494H20.7633ZM21.7633 8H24.8967V6H21.7633V8ZM25.8967 9V18.5494H27.8967V9H25.8967ZM24.8967 8C25.449 8 25.8967 8.44771 25.8967 9H27.8967C27.8967 7.34315 26.5536 6 24.8967 6V8ZM20.7633 9C20.7633 8.44771 21.211 8 21.7633 8V6C20.1065 6 18.7633 7.34314 18.7633 9H20.7633Z" fill="#DBCCA9"/>
<line x1="15.7062" y1="15.8507" x2="15.7062" y2="11.057" stroke="#DBCCA9" stroke-width="2" stroke-linecap="round"/>
<line x1="30.6525" y1="15.8507" x2="30.6525" y2="11.057" stroke="#DBCCA9" stroke-width="2" stroke-linecap="round"/>
<path d="M12 26.5V30C12 36.0751 17.1487 41 23.5 41C29.8513 41 35 36.0751 35 30V26.5" stroke="#DBCCA9" stroke-width="2"/>
<path d="M28 35C28 35 26 36 23.5 36C21 36 19 35 19 35" stroke="#DBCCA9" stroke-width="2" stroke-linecap="round"/>
</svg>
