<svg width="117" height="117" viewBox="0 0 117 117" fill="none" xmlns="http://www.w3.org/2000/svg">
<circle cx="58.5" cy="58.5" r="57.5" stroke="#E6DED1" stroke-width="2"/>
<path fill-rule="evenodd" clip-rule="evenodd" d="M57.0367 90.558V90.4813L43.2913 73.2461L23 47.796L38.8158 33H77.9273L92.6924 46.6301L93.9689 47.8037L61.9013 87.3978L59.3873 90.4659L58.1809 92L57.0367 90.558ZM72.3778 49.2304L61.5667 83.624L89.4389 49.2304H72.3778ZM88.8318 46.6148L76.8766 35.6156H61.5433L71.973 46.6148H88.8318ZM69.9027 48.2639L58.4611 36.1908L46.2879 48.2793L57.8228 84.299L58.212 85.5109L58.4455 84.7439L69.9027 48.2639ZM55.3088 35.6156H39.8744L28.1137 46.6148H44.2253L55.3088 35.6156ZM54.1335 81.484L43.805 49.2304H27.5144L51.7985 79.7198L54.7484 83.4093L54.1335 81.484ZM53.1995 59.4012C52.5922 58.8287 52.1147 58.136 51.7985 57.3686C51.4298 56.4487 51.2499 55.4658 51.2692 54.4769C51.284 54.1197 51.3362 53.765 51.4249 53.4184C51.5068 53.0354 51.616 52.6586 51.7518 52.2908C51.8988 51.8861 52.0838 51.4958 52.3044 51.125C52.5317 50.7309 52.792 50.3563 53.0828 50.0051C53.741 49.2648 54.5327 48.651 55.4178 48.1949C56.124 47.8313 56.8915 47.5974 57.6827 47.5046H57.9629C58.8647 47.4128 59.7759 47.5041 60.6404 47.773C61.3143 47.9881 61.9461 48.315 62.5084 48.7395C63.133 49.2123 63.6478 49.8111 64.0184 50.496C64.4443 51.3149 64.6658 52.2221 64.6644 53.1422C64.6836 53.7619 64.634 54.3818 64.5165 54.9908C64.3686 55.7306 64.1497 56.4548 63.8627 57.1538L60.1812 66.2431H57.3481L59.4963 60.6515C59.0928 60.7904 58.6753 60.8855 58.2509 60.9353L57.854 60.9736C56.925 61.0499 55.9903 60.9269 55.1142 60.6131C54.3994 60.3409 53.748 59.9286 53.1995 59.4012ZM56.5233 50.5102C56.0996 50.6664 55.7148 50.91 55.3944 51.2247C54.7218 51.9436 54.3614 52.8935 54.3904 53.8709C54.3761 54.4937 54.4927 55.1126 54.7328 55.6888C54.938 56.1643 55.2339 56.5966 55.6046 56.9621C55.9333 57.2939 56.3282 57.555 56.7643 57.7291C57.1009 57.8584 57.4549 57.9385 57.8151 57.9669C58.3431 58.0122 58.8748 57.9415 59.3717 57.7598C59.765 57.6174 60.125 57.3982 60.4303 57.1155C60.7655 56.8052 61.0307 56.4289 61.2086 56.0109C61.4105 55.4716 61.5005 54.8977 61.4732 54.3235C61.4709 53.8192 61.3733 53.3198 61.1853 52.8508C61.0037 52.366 60.7406 51.9148 60.4069 51.5161C60.0824 51.1432 59.6854 50.8381 59.2394 50.6187C58.8753 50.4408 58.4778 50.339 58.0719 50.3196H57.8618C57.4069 50.2877 56.9504 50.3527 56.5233 50.5102Z" fill="#E6DED1"/>
</svg>
