<svg width="48" height="48" viewBox="0 0 48 48" fill="none" xmlns="http://www.w3.org/2000/svg">
<rect width="48" height="48" fill="white"/>
<path fill-rule="evenodd" clip-rule="evenodd" d="M24.0359 5.00181C24.5906 4.98126 24.9943 5.13439 25.5206 5.39813C25.5972 5.43653 25.6784 5.47859 25.7642 5.52305C26.2548 5.77719 26.8965 6.10963 27.6996 6.28393C28.4661 6.45029 29.155 6.42179 29.6798 6.40008C29.7727 6.39623 29.8605 6.3926 29.9427 6.3903C30.501 6.37468 30.9092 6.4043 31.3811 6.63773C31.8025 6.84623 32.0433 7.12557 32.3658 7.56492C32.3962 7.60635 32.4276 7.64971 32.4602 7.69473C32.7672 8.11849 33.1802 8.68855 33.8556 9.16623C34.6382 9.71974 35.4576 9.90482 36.0527 10.0392C36.1237 10.0553 36.1915 10.0706 36.2556 10.0857C36.8817 10.2334 37.2579 10.3695 37.598 10.7526C37.8902 11.0817 37.986 11.4132 38.0895 11.9588C38.0987 12.0077 38.1081 12.0589 38.1178 12.1122L38.1179 12.1124L38.1179 12.1125C38.2136 12.6366 38.3465 13.3635 38.8009 14.0945C39.3276 14.9418 40.0571 15.4193 40.5797 15.7613C40.6338 15.7967 40.6857 15.8307 40.7349 15.8635C41.2842 16.2291 41.583 16.4821 41.7537 16.9514C41.8979 17.348 41.8802 17.6767 41.8044 18.1722C41.7957 18.2288 41.786 18.2887 41.7757 18.3516C41.6984 18.8271 41.5924 19.4792 41.7042 20.2341C41.8372 21.1318 42.2055 21.8191 42.4811 22.3336L42.4812 22.3338C42.5127 22.3926 42.5429 22.449 42.5715 22.5033C42.8567 23.0454 43.0181 23.4306 42.9984 23.9631C42.9808 24.439 42.8227 24.7778 42.5529 25.2585C42.5287 25.3016 42.5033 25.3463 42.477 25.3926L42.4767 25.3931C42.215 25.8535 41.8637 26.4713 41.7103 27.2949C41.5486 28.1635 41.6697 28.9027 41.7604 29.4565C41.767 29.4967 41.7735 29.536 41.7796 29.5743C41.7817 29.5869 41.7836 29.5993 41.7856 29.6116C41.8771 30.1896 41.9106 30.5874 41.7468 31.0681C41.5483 31.651 41.2088 31.9917 40.681 32.4241C40.6182 32.4756 40.5515 32.529 40.4818 32.585C39.9802 32.9872 39.321 33.5158 38.8044 34.3348C38.3267 35.0921 38.1428 35.867 38.0069 36.4398C37.9855 36.53 37.9653 36.6152 37.9453 36.6945C37.7933 37.2981 37.6438 37.6811 37.2473 38.0331C36.9222 38.3216 36.5932 38.4139 36.0408 38.5159C35.9957 38.5243 35.9487 38.5327 35.9 38.5414C35.3696 38.6362 34.6295 38.7685 33.8911 39.2448C33.1574 39.7179 32.733 40.3298 32.4277 40.7698L32.4277 40.7698C32.4002 40.8094 32.3737 40.8476 32.3481 40.8841C32.0277 41.3406 31.8073 41.6029 31.4107 41.7831C30.9315 42.0009 30.5214 41.972 29.8804 41.8516C29.8134 41.8391 29.743 41.8251 29.6692 41.8106C29.0628 41.6907 28.2321 41.5264 27.2845 41.7122C26.4733 41.8712 25.8614 42.2174 25.4039 42.4761C25.3544 42.5041 25.3068 42.5311 25.2609 42.5566C24.7823 42.8234 24.4409 42.9807 23.9619 42.9984C23.4293 43.0181 23.044 42.8566 22.5019 42.5715C22.4476 42.5429 22.391 42.5126 22.3322 42.4811C21.8177 42.2055 21.1303 41.8373 20.2326 41.7043C19.4777 41.5925 18.8256 41.6985 18.3501 41.7758C18.2871 41.786 18.2272 41.7958 18.1707 41.8044C17.6751 41.8802 17.3464 41.8979 16.9497 41.7537C16.4803 41.583 16.2273 41.2842 15.8616 40.735C15.8288 40.6858 15.7949 40.6339 15.7595 40.5798L15.7594 40.5798C15.4174 40.0573 14.9399 39.3278 14.0926 38.8011C13.3616 38.3467 12.6346 38.2139 12.1105 38.1182C12.057 38.1084 12.0058 38.099 11.9568 38.0897C11.4111 37.9863 11.0796 37.8904 10.7504 37.5983C10.3638 37.2551 10.2241 36.8771 10.0752 36.2572C10.0589 36.1892 10.0424 36.1171 10.0251 36.0414C9.89008 35.4521 9.70512 34.6446 9.17214 33.8679C8.63616 33.0867 7.95089 32.6214 7.44718 32.2794L7.44677 32.2791C7.38442 32.2368 7.32485 32.1964 7.2687 32.1574C6.74124 31.7918 6.42874 31.5199 6.23551 31.0261C6.06083 30.5797 6.08826 30.2054 6.1861 29.6322C6.19571 29.576 6.20624 29.517 6.21722 29.4556C6.31498 28.9084 6.44859 28.1606 6.28737 27.2949C6.13439 26.4733 5.77133 25.8524 5.50629 25.3991C5.47599 25.3473 5.44697 25.2976 5.41969 25.2501C5.14695 24.7753 5 24.4529 5 24.0001C5 23.5473 5.14695 23.2249 5.41969 22.7501C5.44696 22.7026 5.47598 22.6529 5.50627 22.6011L5.5063 22.6011C5.77133 22.1478 6.13439 21.5269 6.28737 20.7053C6.44882 19.8384 6.32171 19.0952 6.22759 18.5449C6.21775 18.4874 6.20827 18.432 6.19952 18.3787C6.10491 17.8033 6.07432 17.4166 6.24369 16.9525C6.42768 16.4482 6.70918 16.141 7.13358 15.7664C7.19956 15.7081 7.27141 15.6466 7.34774 15.5812C7.75061 15.2362 8.2786 14.7841 8.73048 14.1423C9.2351 13.4256 9.49608 12.6924 9.69664 12.1291L9.69667 12.129C9.7338 12.0247 9.76886 11.9262 9.80301 11.8347C10.0273 11.2339 10.2401 10.8136 10.7131 10.4334C11.0697 10.1468 11.4211 10.0586 11.9876 9.95097L12.0818 9.93323C12.6284 9.83069 13.3776 9.69014 14.1299 9.17476C14.9379 8.62113 15.3448 7.88078 15.6306 7.36068C15.654 7.31823 15.6765 7.27725 15.6984 7.23796C16.0027 6.69112 16.205 6.40178 16.6079 6.20724C17.0683 5.98504 17.4653 6.01023 18.1055 6.13417C18.1748 6.14758 18.2481 6.1626 18.3251 6.17839C18.9297 6.30229 19.7661 6.47369 20.7132 6.288C21.5244 6.12895 22.1364 5.78282 22.5938 5.52408L22.5941 5.5239C22.6435 5.49599 22.691 5.46909 22.7369 5.44355C23.2154 5.17684 23.5568 5.01955 24.0359 5.00181ZM28.1238 4.32944C27.5995 4.21565 27.2133 4.01752 26.7267 3.76789C26.6281 3.71732 26.5254 3.66463 26.4166 3.61011C25.7824 3.29226 25.0167 2.96411 23.9619 3.00318C22.9912 3.03912 22.3054 3.39437 21.7632 3.69656L21.6278 3.77229L21.6278 3.7723C21.151 4.03941 20.8088 4.23118 20.3284 4.32537C19.7954 4.42987 19.3545 4.34248 18.7257 4.21783C18.6487 4.20256 18.5688 4.18673 18.4856 4.17063C17.7509 4.02838 16.8072 3.89024 15.7385 4.40612C14.7318 4.89207 14.2755 5.68194 13.9508 6.26537L13.9217 6.3176C13.6001 6.89589 13.4047 7.24722 12.9995 7.52484C12.5995 7.79887 12.2191 7.87117 11.6153 7.98592L11.6142 7.98615C11.0234 8.09842 10.2342 8.25242 9.46014 8.87455C8.57064 9.58947 8.19972 10.4108 7.92931 11.1352C7.87987 11.2677 7.83448 11.3936 7.79093 11.5144L7.79089 11.5145C7.59126 12.0683 7.43027 12.5149 7.09516 12.9909C6.79883 13.4117 6.48444 13.683 6.09103 14.0225L6.09102 14.0226C6.00168 14.0996 5.90827 14.1803 5.81007 14.2669C5.28961 14.7263 4.7174 15.3007 4.36486 16.2669C4.01047 17.2381 4.11974 18.0567 4.22601 18.7032L4.2509 18.8533C4.347 19.4306 4.41467 19.8371 4.32117 20.3392C4.23477 20.8032 4.04453 21.1323 3.77046 21.6065C3.74295 21.6541 3.7146 21.7031 3.68542 21.7539C3.37241 22.2989 3 23.0023 3 24.0001C3 24.9979 3.37241 25.7013 3.68542 26.2463C3.71459 26.2971 3.74293 26.3461 3.77043 26.3937L3.77046 26.3937C4.04453 26.8679 4.23477 27.197 4.32117 27.661C4.41271 28.1526 4.34351 28.5516 4.24417 29.1244C4.23457 29.1798 4.22468 29.2368 4.21462 29.2957C4.10333 29.9476 3.99089 30.7784 4.37304 31.7549C4.79228 32.8263 5.52599 33.383 6.12934 33.8012C6.19463 33.8464 6.25775 33.8898 6.31883 33.9318L6.31884 33.9318C6.8387 34.289 7.21125 34.545 7.52301 34.9994C7.82928 35.4458 7.93124 35.879 8.0744 36.4874L8.07445 36.4876C8.09234 36.5636 8.11087 36.6423 8.13053 36.7242C8.30205 37.4385 8.55889 38.3273 9.42279 39.0941C10.1785 39.7649 10.97 39.9383 11.5842 40.0547L11.714 40.0792C12.2702 40.1837 12.6403 40.2533 13.0368 40.4997C13.494 40.7839 13.7398 41.1546 14.1096 41.7121L14.1969 41.8436C14.6011 42.4505 15.1561 43.2296 16.2663 43.6333C17.1461 43.9532 17.8846 43.8714 18.473 43.7814C18.5437 43.7706 18.6112 43.76 18.6762 43.7498C19.1635 43.6731 19.5082 43.6188 19.9395 43.6827C20.4775 43.7624 20.8669 43.9688 21.4019 44.2522C21.4565 44.2812 21.5127 44.311 21.5708 44.3415C22.1844 44.6643 22.9588 45.0369 24.0359 44.997C25.0065 44.9611 25.6923 44.6058 26.2345 44.3036L26.3699 44.2279C26.8467 43.9608 27.189 43.769 27.6693 43.6748C28.2115 43.5685 28.6584 43.6542 29.2906 43.7753L29.2906 43.7753C29.3617 43.7889 29.4352 43.803 29.5114 43.8173C30.2412 43.9543 31.1718 44.0886 32.2383 43.6039C33.1532 43.188 33.6318 42.5365 33.9851 42.033L34.039 41.9562C34.3701 41.4835 34.5847 41.1772 34.975 40.9255C35.3659 40.6735 35.7348 40.6057 36.3061 40.5007L36.3061 40.5007L36.404 40.4827C37.0147 40.3699 37.8152 40.2032 38.5749 39.5288C39.429 38.7708 39.703 37.9046 39.8847 37.183C39.9128 37.0715 39.9386 36.9654 39.9633 36.8639C40.103 36.2894 40.2077 35.8588 40.4959 35.4019C40.8233 34.8829 41.2142 34.5664 41.7222 34.1551C41.7952 34.0961 41.8705 34.0351 41.9484 33.9712C42.5561 33.4734 43.2567 32.8384 43.6401 31.7129C43.9689 30.7472 43.8625 29.9399 43.761 29.2987L43.7403 29.1694C43.6473 28.5874 43.5811 28.1735 43.6765 27.661C43.7661 27.1799 43.9586 26.8382 44.2308 26.3551L44.2971 26.2372C44.5997 25.6979 44.961 25.0108 44.997 24.0371C45.0369 22.9601 44.6643 22.1857 44.3414 21.5721C44.3224 21.536 44.3037 21.5005 44.2853 21.4658C44.2742 21.4447 44.2631 21.4239 44.2522 21.4032C43.9687 20.8683 43.7623 20.4789 43.6826 19.941C43.6188 19.5097 43.673 19.165 43.7497 18.6778C43.7599 18.6128 43.7706 18.5453 43.7814 18.4746C43.8714 17.8862 43.9532 17.1477 43.6332 16.2679C43.2295 15.1578 42.4504 14.6029 41.8434 14.1987L41.7118 14.1114C41.1543 13.7416 40.7837 13.4959 40.4994 13.0386C40.253 12.6422 40.1834 12.2722 40.0789 11.716L40.0789 11.716L40.0544 11.5862C39.938 10.9721 39.7646 10.1806 39.0937 9.42485C38.3237 8.55745 37.4262 8.30691 36.7147 8.13911C36.6431 8.12223 36.5739 8.10617 36.507 8.09063C35.8858 7.94641 35.4522 7.84574 35.0105 7.53336C34.6162 7.25452 34.3878 6.94201 34.0657 6.50122L33.9781 6.38149C33.6131 5.88431 33.1377 5.2754 32.2679 4.8451C31.3617 4.39681 30.5648 4.37211 29.8868 4.39108C29.7685 4.39439 29.6565 4.39858 29.5493 4.4026L29.5492 4.4026C29.0308 4.42202 28.6211 4.43737 28.1238 4.32944ZM24 38C31.732 38 38 31.732 38 24C38 16.268 31.732 9.99999 24 9.99999C16.268 9.99999 10 16.268 10 24C10 31.732 16.268 38 24 38ZM24 40C32.8366 40 40 32.8365 40 24C40 15.1634 32.8366 7.99999 24 7.99999C15.1634 7.99999 8 15.1634 8 24C8 32.8365 15.1634 40 24 40ZM23.6522 33.6956L24.2465 32.9031L24.5897 32.4456L24.736 32.2505L32.7418 21.5761L33.3043 20.8261L32.8043 20.0761L30.5281 16.6618L30.087 16H29.1495H24.5205H23.6522H22.7839H17.7915H16.8152L16.4132 16.6891L14.4375 20.0761L14 20.8261L14.5625 21.5761L22.5683 32.2505L22.7147 32.4456L23.0578 32.9031L23.6522 33.6956ZM23.6522 30.186L21.7688 21.5761H25.5356L23.6522 30.186ZM27.0711 21.5761L25.5081 28.7211L30.8668 21.5761H27.0711ZM31.0016 20.0761H27.9674L29.5737 17.9343L31.0016 20.0761ZM28.0245 17.5H25.3955L26.5456 19.4717L28.0245 17.5ZM22.1427 20.0761L23.6455 17.5H23.6522H23.6589L25.1616 20.0761H22.1427ZM20.7282 19.524L21.9089 17.5H19.0415L20.7282 19.524ZM17.4347 17.9149L16.1741 20.0761H19.2357L17.4347 17.9149ZM20.2333 21.5761H16.4375L21.7963 28.7211L20.2333 21.5761Z" fill="#DBCCA9"/>
</svg>
