<svg width="48" height="48" viewBox="0 0 48 48" fill="none" xmlns="http://www.w3.org/2000/svg">
<rect width="48" height="48" fill="white"/>
<path d="M20.288 30.2481L15.8802 26.103C15.103 25.3721 15.069 24.1484 15.8044 23.3755C16.54 22.6023 17.7644 22.5757 18.533 23.3161L21.7129 26.3799L29.4716 18.2252C30.2276 17.4306 31.4947 17.4306 32.2507 18.2252C32.9637 18.9745 32.9541 20.1543 32.2289 20.8919L23.0843 30.1933C22.322 30.9686 21.08 30.993 20.288 30.2481Z" stroke="#DBCCA9" stroke-width="2"/>
<path d="M25.1613 43.4756C24.6883 43.7808 24.2983 44.0235 24.0182 44.1949C23.7272 44.0265 23.3191 43.7859 22.8229 43.4818C21.7756 42.84 20.3401 41.9177 18.7886 40.7969C15.6528 38.5319 12.1686 35.5444 10.3707 32.4924C8.30316 28.9827 7.45609 23.6738 7.15181 19.1092C7.00131 16.8514 6.9859 14.8209 7.00824 13.355C7.01931 12.628 7.03965 12.0412 7.05723 11.636L15.4283 8.34233L15.4666 8.32727L15.5035 8.30911L24.0016 4.12966C24.1134 4.19212 24.2435 4.26461 24.3898 4.34576C24.9203 4.64005 25.6643 5.0486 26.5185 5.50599C28.2212 6.41764 30.3839 7.53513 32.1711 8.32619C33.9571 9.11672 36.3346 10.009 38.2494 10.6988C39.2102 11.0449 40.0608 11.3422 40.6713 11.553C40.7869 11.5929 40.894 11.6298 40.9916 11.6633C40.9985 12.0662 41.0034 12.6339 40.9971 13.3302C40.9836 14.7965 40.9201 16.8275 40.7199 19.0863C40.3153 23.6506 39.3657 28.9682 37.2697 32.4884C35.4847 35.4865 32.0962 38.4774 29.0617 40.759C27.5595 41.8885 26.1725 42.8234 25.1613 43.4756Z" stroke="#DBCCA9" stroke-width="2"/>
<path d="M15.9 12.2073L10.5 14.5091V16.8109" stroke="#DBCCA9" stroke-width="2" stroke-linecap="round"/>
<path d="M25.8 38.4475C25.8 38.4475 28.3853 36.9249 29.85 35.6854C31.1906 34.551 33 32.4629 33 32.4629" stroke="#DBCCA9" stroke-width="2" stroke-linecap="round"/>
</svg>
