<svg width="48" height="48" viewBox="0 0 48 48" fill="none" xmlns="http://www.w3.org/2000/svg">
<rect width="48" height="48" fill="white"/>
<path d="M23.2774 29.1416C23.2774 29.1416 22.3657 26.6663 22.6546 25.0929C22.9297 23.594 23.4957 22.7925 24.5232 21.667C25.8455 20.2187 27.314 19.7984 29.5063 19.487C31.9176 19.1444 35.1122 19.487 35.1122 19.487C35.1122 19.487 34.1181 22.2256 33.555 24.1585C32.9199 26.3386 32.5836 27.7243 31.0635 29.1416C28.8377 31.2168 23.2774 29.453 23.2774 29.453" stroke="#DBCCA9" stroke-width="2"/>
<path d="M21.0975 20.7328C21.9797 22.4673 21.0975 25.7158 21.0975 25.7158C21.0975 25.7158 18.3789 26.548 16.7373 25.7158C15.5004 25.0888 14.9019 24.1346 14.2458 22.9129C13.1847 20.9372 13 17.9298 13 17.9298C13 17.9298 15.9594 17.6115 17.6716 18.2413C19.2939 18.8381 20.3137 19.192 21.0975 20.7328Z" stroke="#DBCCA9" stroke-width="2"/>
<path d="M21.4089 34.4361C21.4089 34.4361 22.8243 29.3378 24.8348 26.7699C26.6782 24.4154 30.7521 21.9785 30.7521 21.9785" stroke="#DBCCA9" stroke-width="2" stroke-linecap="round"/>
<path d="M17.4104 21.2253C17.4104 21.2253 20.2522 24.1186 21.1862 26.4372C22.0426 28.5631 22.0989 32.2011 22.0989 32.2011" stroke="#DBCCA9" stroke-width="2" stroke-linecap="round"/>
<line x1="27.7034" y1="22.9785" x2="27.7034" y2="23.47" stroke="#DBCCA9" stroke-width="2" stroke-linecap="round"/>
<path d="M25.4575 26.3387C25.4575 26.3387 26.7776 26.0272 27.6376 26.0272C28.4976 26.0272 29.8177 26.3387 29.8177 26.3387" stroke="#DBCCA9" stroke-width="2" stroke-linecap="round"/>
<path d="M26.851 8.27716C22.5838 7.33115 18.1156 8.11901 14.4293 10.4674C10.7431 12.8159 8.14067 16.5324 7.19466 20.7996C6.24865 25.0668 7.03651 29.535 9.38493 33.2213C12.8675 36.9919 12.4048 36.5292 16.5688 39.3052" stroke="#DBCCA9" stroke-width="2" stroke-linecap="round"/>
<path d="M26.9744 8.14352L22.1677 3.68018" stroke="#DBCCA9" stroke-width="2" stroke-linecap="round"/>
<path d="M26.6565 8.37682L20.7175 11.1615" stroke="#DBCCA9" stroke-width="2" stroke-linecap="round"/>
<path d="M20.3115 40.3198C24.5615 41.3401 29.0428 40.6304 32.7695 38.3466C36.4962 36.0629 39.163 32.3923 40.1834 28.1423C41.2037 23.8922 40.4939 19.411 38.2102 15.6843C35.5579 12.2636 34.5279 11.2336 30.0645 9.17349" stroke="#DBCCA9" stroke-width="2" stroke-linecap="round"/>
<path d="M20.1858 40.4512L24.9138 44.9978" stroke="#DBCCA9" stroke-width="2" stroke-linecap="round"/>
<path d="M20.5077 40.2233L26.4944 37.5427" stroke="#DBCCA9" stroke-width="2" stroke-linecap="round"/>
</svg>
