<svg width="32" height="32" viewBox="0 0 32 32" fill="none" xmlns="http://www.w3.org/2000/svg">
<path d="M22.4665 0H9.53188C7.0045 0.00297011 4.58151 1.00839 2.79454 2.79567C1.00756 4.58295 0.00254516 7.0061 0 9.53348L0 22.4681C0.00297011 24.9955 1.00839 27.4185 2.79567 29.2055C4.58295 30.9924 7.0061 31.9975 9.53348 32H22.4681C24.9955 31.997 27.4185 30.9916 29.2055 29.2043C30.9924 27.4171 31.9975 24.9939 32 22.4665V9.53188C31.997 7.0045 30.9916 4.58151 29.2043 2.79454C27.4171 1.00756 24.9939 0.00254516 22.4665 0V0ZM28.7816 22.4665C28.7816 23.2958 28.6182 24.117 28.3009 24.8832C27.9835 25.6494 27.5183 26.3455 26.9319 26.9319C26.3455 27.5183 25.6494 27.9835 24.8832 28.3009C24.117 28.6182 23.2958 28.7816 22.4665 28.7816H9.53188C7.8573 28.7811 6.25146 28.1156 5.0675 26.9314C3.88355 25.7471 3.21843 24.1411 3.21843 22.4665V9.53188C3.21886 7.8573 3.88438 6.25146 5.06863 5.0675C6.25289 3.88355 7.85891 3.21843 9.53348 3.21843H22.4681C24.1427 3.21886 25.7485 3.88438 26.9325 5.06863C28.1165 6.25289 28.7816 7.85891 28.7816 9.53348V22.4681V22.4665Z" fill="#6C757D"/>
<path d="M15.9991 7.72388C13.8056 7.72727 11.7029 8.60027 10.1519 10.1515C8.60102 11.7027 7.72843 13.8056 7.72546 15.9992C7.72801 18.1933 8.60063 20.2968 10.152 21.8484C11.7033 23.4 13.8066 24.2731 16.0007 24.276C18.1951 24.2735 20.2989 23.4007 21.8506 21.849C23.4022 20.2973 24.2751 18.1935 24.2776 15.9992C24.2742 13.8051 23.4008 11.7019 21.8489 10.1508C20.297 8.59982 18.1933 7.7276 15.9991 7.72548V7.72388ZM15.9991 21.0576C14.658 21.0576 13.3718 20.5248 12.4234 19.5765C11.4751 18.6282 10.9423 17.3419 10.9423 16.0008C10.9423 14.6596 11.4751 13.3734 12.4234 12.425C13.3718 11.4767 14.658 10.9439 15.9991 10.9439C17.3403 10.9439 18.6265 11.4767 19.5749 12.425C20.5232 13.3734 21.056 14.6596 21.056 16.0008C21.056 17.3419 20.5232 18.6282 19.5749 19.5765C18.6265 20.5248 17.3403 21.0576 15.9991 21.0576Z" fill="#6C757D"/>
<path d="M24.2921 9.76905C25.3871 9.76905 26.2748 8.88138 26.2748 7.78638C26.2748 6.69138 25.3871 5.80371 24.2921 5.80371C23.1971 5.80371 22.3094 6.69138 22.3094 7.78638C22.3094 8.88138 23.1971 9.76905 24.2921 9.76905Z" fill="#6C757D"/>
</svg>
