<svg width="32" height="32" viewBox="0 0 32 32" fill="none" xmlns="http://www.w3.org/2000/svg">
<path d="M22.4665 0H9.53188C7.0045 0.00297011 4.58151 1.00839 2.79454 2.79567C1.00756 4.58295 0.00254516 7.0061 0 9.53348L0 22.4681C0.00297011 24.9955 1.00839 27.4185 2.79567 29.2055C4.58295 30.9924 7.0061 31.9975 9.53348 32H22.4681C24.9955 31.997 27.4185 30.9916 29.2055 29.2043C30.9924 27.4171 31.9975 24.9939 32 22.4665V9.53188C31.997 7.0045 30.9916 4.58151 29.2043 2.79454C27.4171 1.00756 24.9939 0.00254516 22.4665 0V0ZM28.7816 22.4665C28.7816 23.2958 28.6182 24.117 28.3009 24.8832C27.9835 25.6494 27.5183 26.3455 26.9319 26.9319C26.3455 27.5183 25.6494 27.9835 24.8832 28.3009C24.117 28.6182 23.2958 28.7816 22.4665 28.7816H9.53188C7.8573 28.7811 6.25146 28.1156 5.0675 26.9314C3.88355 25.7471 3.21843 24.1411 3.21843 22.4665V9.53188C3.21886 7.8573 3.88438 6.25146 5.06863 5.0675C6.25289 3.88355 7.85891 3.21843 9.53348 3.21843H22.4681C24.1427 3.21886 25.7485 3.88438 26.9325 5.06863C28.1165 6.25289 28.7816 7.85891 28.7816 9.53348V22.4681V22.4665Z" fill="#F9F6F0"/>
<path d="M15.9991 7.72375C13.8055 7.72715 11.7028 8.60015 10.1519 10.1514C8.60096 11.7026 7.72837 13.8055 7.7254 15.999C7.72795 18.1931 8.60057 20.2967 10.1519 21.8483C11.7032 23.3999 13.8066 24.273 16.0007 24.2759C18.1951 24.2734 20.2989 23.4005 21.8505 21.8489C23.4022 20.2972 24.275 18.1934 24.2776 15.999C24.2742 13.8049 23.4007 11.7017 21.8488 10.1507C20.2969 8.59969 18.1932 7.72748 15.9991 7.72536V7.72375ZM15.9991 21.0575C14.6579 21.0575 13.3717 20.5247 12.4233 19.5764C11.475 18.628 10.9422 17.3418 10.9422 16.0006C10.9422 14.6595 11.475 13.3733 12.4233 12.4249C13.3717 11.4766 14.6579 10.9438 15.9991 10.9438C17.3402 10.9438 18.6265 11.4766 19.5748 12.4249C20.5232 13.3733 21.0559 14.6595 21.0559 16.0006C21.0559 17.3418 20.5232 18.628 19.5748 19.5764C18.6265 20.5247 17.3402 21.0575 15.9991 21.0575Z" fill="#F9F6F0"/>
<path d="M24.2921 9.76905C25.3871 9.76905 26.2747 8.88138 26.2747 7.78638C26.2747 6.69138 25.3871 5.80371 24.2921 5.80371C23.1971 5.80371 22.3094 6.69138 22.3094 7.78638C22.3094 8.88138 23.1971 9.76905 24.2921 9.76905Z" fill="#F9F6F0"/>
</svg>
