<svg width="219" height="61" viewBox="0 0 219 61" fill="none" xmlns="http://www.w3.org/2000/svg">
<g clip-path="url(#clip0)">
<path d="M1.48474 54.093H2.22714V60.4937L5.38629 60.4462V60.9209H1.48474V54.093Z" fill="#F9F6F0"/>
<path d="M12.3681 60.9208H11.8468L15.1639 54.0217H15.4087L18.7653 60.9208H17.9755L17.0594 59.0615H13.2605L12.3681 60.9208ZM13.4738 58.5473H16.8304L15.1481 55.0028L13.4738 58.5473Z" fill="#F9F6F0"/>
<path d="M25.9208 54.093H28.0532C28.3015 54.0657 28.5527 54.0883 28.7922 54.1593C29.0317 54.2304 29.2547 54.3486 29.4481 54.5069C29.6415 54.6653 29.8014 54.8607 29.9185 55.0817C30.0357 55.3027 30.1077 55.5449 30.1303 55.7941C30.1073 56.1479 29.9803 56.4869 29.7653 56.7685C29.5502 57.0501 29.2568 57.2616 28.922 57.3764C29.3431 57.4248 29.7332 57.6217 30.0226 57.932C30.312 58.2422 30.4818 58.6454 30.5015 59.0696C30.4711 59.3441 30.3868 59.61 30.2535 59.8518C30.1202 60.0937 29.9405 60.3067 29.7247 60.4788C29.509 60.6508 29.2614 60.7785 28.9962 60.8543C28.731 60.9302 28.4535 60.9528 28.1796 60.9209H25.9208V54.093ZM26.6632 54.544V57.234H28.0137C28.1894 57.2458 28.3656 57.2218 28.5318 57.1635C28.6979 57.1052 28.8506 57.0138 28.9805 56.8947C29.1104 56.7757 29.2149 56.6315 29.2876 56.4709C29.3604 56.3103 29.3999 56.1366 29.4037 55.9602C29.3958 55.7624 29.3482 55.5681 29.2639 55.389C29.1796 55.2098 29.0603 55.0495 28.913 54.9174C28.7657 54.7853 28.5934 54.6842 28.4064 54.6201C28.2193 54.556 28.0214 54.5301 27.8242 54.544H26.6632ZM26.6632 57.7087V60.5174H28.3533C28.5328 60.526 28.7122 60.498 28.8805 60.435C29.0488 60.3721 29.2027 60.2755 29.3327 60.1512C29.4626 60.0269 29.5661 59.8775 29.6367 59.712C29.7072 59.5464 29.7435 59.3682 29.7433 59.1882C29.7404 58.986 29.6968 58.7864 29.6151 58.6015C29.5334 58.4165 29.4152 58.25 29.2678 58.1118C29.1203 57.9737 28.9465 57.8668 28.7568 57.7975C28.5671 57.7283 28.3654 57.6981 28.1638 57.7087H26.6632Z" fill="#F9F6F0"/>
<path d="M51.2731 56.4665C51.266 56.1983 51.2034 55.9345 51.0892 55.6918C50.9751 55.4491 50.8119 55.2327 50.6099 55.0565C50.408 54.8802 50.1717 54.7479 49.9161 54.6678C49.6605 54.5878 49.391 54.5617 49.1249 54.5914C48.7602 54.593 48.3998 54.6708 48.0669 54.8198C47.7339 54.9688 47.4356 55.1858 47.1911 55.4568C46.9465 55.7278 46.7611 56.047 46.6467 56.3938C46.5322 56.7407 46.4913 57.1077 46.5265 57.4713C46.4968 57.8702 46.5536 58.2709 46.6929 58.6458C46.8321 59.0207 47.0506 59.3611 47.3334 59.6436C47.6161 59.9261 47.9564 60.144 48.3311 60.2826C48.7057 60.4211 49.1058 60.4769 49.504 60.4461C50.1413 60.4326 50.7675 60.2757 51.3363 59.9873V57.9935H49.267L49.3539 57.5425H51.9602V60.0506C51.204 60.6947 50.2353 61.0332 49.2433 61C48.7901 61.0257 48.3366 60.9562 47.9118 60.7959C47.487 60.6356 47.1004 60.388 46.7769 60.0691C46.4533 59.7502 46.1999 59.367 46.033 58.9441C45.8661 58.5212 45.7894 58.0681 45.8077 57.6137C45.7872 57.1463 45.8623 56.6796 46.0284 56.2423C46.1944 55.8049 46.4479 55.4062 46.7734 55.0706C47.0988 54.735 47.4892 54.4695 47.9208 54.2905C48.3523 54.1115 48.8158 54.0228 49.2828 54.0297C50.9256 54.0297 52.0155 54.9949 52.0155 56.4665H51.2731Z" fill="#F9F6F0"/>
<path d="M59.708 54.0929H61.801C62.0606 54.0747 62.3213 54.1089 62.5675 54.1936C62.8138 54.2783 63.0405 54.4117 63.2342 54.5858C63.428 54.76 63.5848 54.9714 63.6954 55.2075C63.806 55.4436 63.8681 55.6995 63.8781 55.9601C63.8606 56.4059 63.696 56.8332 63.4102 57.1754C63.1244 57.5175 62.7335 57.7551 62.2985 57.851C63.1119 58.7685 63.7828 59.8033 64.2888 60.9208H63.499C63.499 60.9208 62.4723 58.5472 61.6351 57.9301H60.4504V60.9208H59.708V54.0929ZM60.4504 54.5439V57.495H61.7615C61.9485 57.5038 62.1353 57.4738 62.3102 57.4068C62.485 57.3399 62.6442 57.2374 62.7777 57.1059C62.9112 56.9744 63.0161 56.8167 63.0859 56.6427C63.1556 56.4686 63.1887 56.282 63.1831 56.0946C63.1897 55.885 63.1533 55.6763 63.0762 55.4813C62.9992 55.2864 62.8831 55.1093 62.7351 54.961C62.5871 54.8127 62.4103 54.6964 62.2157 54.6192C62.0211 54.542 61.8127 54.5056 61.6035 54.5122L60.4504 54.5439Z" fill="#F9F6F0"/>
<path d="M74.6743 54.0296C75.1212 54.0198 75.5654 54.101 75.98 54.2683C76.3946 54.4356 76.771 54.6855 77.0864 55.0029C77.4017 55.3203 77.6494 55.6985 77.8145 56.1146C77.9796 56.5308 78.0585 56.9761 78.0467 57.4238C78.0509 57.8946 77.9614 58.3615 77.7835 58.7973C77.6056 59.2331 77.3428 59.629 77.0105 59.9619C76.6782 60.2948 76.2829 60.5581 75.8479 60.7363C75.4129 60.9145 74.9468 61.0041 74.4768 60.9999C74.0277 61.0141 73.5804 60.9361 73.1625 60.7707C72.7445 60.6052 72.3648 60.3559 72.0467 60.0379C71.7286 59.72 71.4787 59.3402 71.3126 58.9219C71.1465 58.5036 71.0676 58.0557 71.0808 57.6057C71.0765 57.1329 71.1667 56.664 71.3461 56.2266C71.5254 55.7893 71.7904 55.3923 72.1252 55.059C72.4601 54.7258 72.8581 54.4631 73.2959 54.2863C73.7337 54.1095 74.2023 54.0222 74.6743 54.0296ZM74.6743 60.4698C75.0324 60.4662 75.3861 60.3896 75.7138 60.2446C76.0414 60.0997 76.3361 59.8894 76.58 59.6266C76.8238 59.3638 77.0117 59.054 77.1322 58.7161C77.2526 58.3781 77.3031 58.0192 77.2806 57.6611C77.2986 57.2749 77.2403 56.889 77.109 56.5254C76.9777 56.1618 76.776 55.8278 76.5155 55.5426C76.2549 55.2574 75.9407 55.0265 75.5909 54.8632C75.241 54.7 74.8624 54.6076 74.4768 54.5913C74.1212 54.594 73.7697 54.669 73.4438 54.8116C73.1179 54.9542 72.8242 55.1616 72.5806 55.4212C72.3369 55.6808 72.1484 55.9872 72.0264 56.3219C71.9043 56.6566 71.8513 57.0126 71.8705 57.3684C71.8471 57.7574 71.9015 58.1472 72.0304 58.5149C72.1594 58.8826 72.3603 59.2208 72.6214 59.5097C72.8826 59.7985 73.1987 60.0323 73.5512 60.1971C73.9037 60.362 74.2855 60.4547 74.6743 60.4698Z" fill="#F9F6F0"/>
<path d="M89.846 56.5536L87.8241 61H87.603L84.4438 54.093H85.2336L87.8399 59.8528L89.6091 55.9918L88.8193 54.093H89.6091L91.9784 59.8449L94.2925 54.093H94.8295L91.9705 61H91.7573L89.846 56.5536Z" fill="#F9F6F0"/>
<path d="M101.977 54.0376H102.198L107.411 59.6866V54.093H107.909V60.9921H107.687L102.475 55.3826V60.9209H101.977V54.0376Z" fill="#F9F6F0"/>
<path d="M124.083 54.093H126.65C127.092 54.0811 127.532 54.1592 127.943 54.3225C128.354 54.4858 128.728 54.7309 129.042 55.043C129.355 55.3551 129.603 55.7277 129.769 56.1383C129.934 56.5489 130.016 56.9889 130.007 57.4317C130.004 57.8964 129.909 58.3559 129.727 58.7835C129.546 59.2111 129.281 59.5984 128.949 59.9229C128.617 60.2475 128.224 60.5028 127.793 60.6741C127.362 60.8454 126.901 60.9292 126.437 60.9209H124.068L124.083 54.093ZM124.826 54.5439V60.4936H126.642C127.002 60.49 127.356 60.4132 127.685 60.2678C128.013 60.1225 128.309 59.9116 128.554 59.6481C128.798 59.3845 128.987 59.0739 129.108 58.735C129.228 58.3961 129.279 58.0361 129.257 57.677C129.284 57.2826 129.233 56.8865 129.105 56.5123C128.978 56.1381 128.777 55.7933 128.514 55.4983C128.251 55.2032 127.932 54.964 127.575 54.7946C127.218 54.6253 126.831 54.5293 126.437 54.5123L124.826 54.5439Z" fill="#F9F6F0"/>
<path d="M137.423 54.093H138.213V60.9209H137.423V54.093Z" fill="#F9F6F0"/>
<path d="M145.905 60.9208H145.368L148.685 54.0217H148.93L152.303 60.9208H151.513L150.628 59.0457H146.829L145.905 60.9208ZM147.011 58.5473H150.368L148.685 55.0028L147.011 58.5473Z" fill="#F9F6F0"/>
<path d="M165.176 55.0029L162.807 60.3434H162.593L160.224 55.0188L159.648 60.921H159.142L159.798 54.0693H160.587L162.87 59.1566L165.065 54.0931H165.768L166.503 60.9447H165.8L165.176 55.0029Z" fill="#F9F6F0"/>
<path d="M177.157 54.0296C177.604 54.0198 178.048 54.101 178.463 54.2683C178.877 54.4356 179.254 54.6855 179.569 55.0029C179.884 55.3203 180.132 55.6985 180.297 56.1146C180.462 56.5308 180.541 56.9761 180.529 57.4238C180.534 57.8986 180.443 58.3695 180.262 58.8085C180.081 59.2474 179.814 59.6455 179.477 59.9791C179.139 60.3127 178.738 60.5749 178.298 60.7503C177.857 60.9256 177.386 61.0105 176.912 60.9999C176.466 61.0087 176.023 60.9266 175.61 60.7587C175.197 60.5909 174.822 60.3406 174.508 60.0233C174.194 59.7059 173.948 59.328 173.784 58.9124C173.62 58.4968 173.543 58.0523 173.556 57.6057C173.551 57.1322 173.642 56.6627 173.822 56.2248C174.001 55.7869 174.267 55.3895 174.603 55.0562C174.939 54.7228 175.337 54.4602 175.776 54.2839C176.215 54.1076 176.684 54.0211 177.157 54.0296ZM177.157 60.4698C177.515 60.4662 177.869 60.3896 178.196 60.2446C178.524 60.0997 178.819 59.8894 179.063 59.6266C179.307 59.3638 179.494 59.054 179.615 58.7161C179.735 58.3782 179.786 58.0192 179.763 57.6611C179.781 57.2711 179.721 56.8813 179.587 56.5147C179.453 56.1481 179.247 55.8121 178.981 55.5262C178.716 55.2403 178.396 55.0104 178.041 54.8499C177.686 54.6893 177.302 54.6014 176.912 54.5913C176.554 54.5938 176.199 54.6696 175.871 54.8142C175.543 54.9588 175.248 55.1691 175.004 55.4321C174.76 55.6952 174.572 56.0054 174.452 56.3438C174.332 56.6823 174.282 57.0417 174.306 57.4C174.287 57.7903 174.346 58.1805 174.48 58.5476C174.614 58.9147 174.819 59.2512 175.085 59.5373C175.351 59.8234 175.671 60.0533 176.027 60.2134C176.383 60.3736 176.767 60.4608 177.157 60.4698Z" fill="#F9F6F0"/>
<path d="M187.969 54.0376H188.19L193.387 59.6866V54.093H193.885V60.9921H193.664L188.467 55.3826V60.9209H187.969V54.0376Z" fill="#F9F6F0"/>
<path d="M201.727 54.093H204.294C204.736 54.0811 205.176 54.1592 205.587 54.3225C205.998 54.4858 206.372 54.7309 206.686 55.043C206.999 55.3551 207.247 55.7277 207.413 56.1383C207.579 56.5489 207.66 56.9889 207.651 57.4317C207.648 57.8964 207.553 58.3559 207.371 58.7835C207.19 59.2111 206.925 59.5984 206.593 59.9229C206.261 60.2475 205.868 60.5028 205.437 60.6741C205.006 60.8454 204.545 60.9292 204.081 60.9209H201.712L201.727 54.093ZM202.47 54.5439V60.4936H204.286C204.648 60.4933 205.006 60.4186 205.338 60.2742C205.67 60.1298 205.969 59.9187 206.216 59.6539C206.463 59.3892 206.654 59.0764 206.776 58.7351C206.897 58.3937 206.948 58.0309 206.924 57.6691C206.952 57.2746 206.901 56.8786 206.773 56.5044C206.646 56.1302 206.444 55.7854 206.182 55.4904C205.919 55.1953 205.6 54.9561 205.243 54.7867C204.886 54.6174 204.499 54.5214 204.105 54.5044L202.47 54.5439Z" fill="#F9F6F0"/>
<path d="M216.67 57.8115C215.399 57.1627 214.759 56.7038 214.759 55.7386C214.759 54.7734 215.549 54.0376 216.852 54.0376C217.184 54.013 217.518 54.0549 217.834 54.1609C218.15 54.2668 218.441 54.4347 218.692 54.6547V55.3114C218.446 55.0605 218.15 54.8646 217.824 54.7364C217.497 54.6082 217.147 54.5507 216.796 54.5677C215.849 54.5677 215.399 54.9791 215.399 55.612C215.399 56.245 215.936 56.601 217.033 57.1469C218.336 57.7957 219.016 58.2941 219.016 59.2277C219.016 60.1613 218.305 61 216.828 61C216.068 61.0316 215.322 60.7809 214.735 60.2958V59.6233C215.338 60.167 216.119 60.4709 216.931 60.4778C217.886 60.4778 218.384 60.0268 218.384 59.386C218.384 58.7451 217.807 58.3891 216.67 57.8115Z" fill="#F9F6F0"/>
<path d="M199.208 10.6176C198.987 10.2013 198.68 9.83716 198.308 9.54947C197.972 9.29241 197.596 9.09442 197.194 8.964C196.684 8.80468 196.146 8.75085 195.614 8.80576H195.449C194.977 8.863 194.519 9.00505 194.098 9.22508C193.565 9.50112 193.089 9.87405 192.692 10.3248C192.51 10.5373 192.346 10.7649 192.202 11.0052C192.07 11.2291 191.959 11.4649 191.871 11.7094C191.789 11.9338 191.723 12.1639 191.673 12.3977C191.632 12.6034 191.61 12.8128 191.61 13.0227C191.601 13.6239 191.711 14.2209 191.934 14.7792C192.102 15.248 192.365 15.6765 192.708 16.0371C193.036 16.348 193.423 16.5901 193.845 16.7492C194.37 16.9415 194.931 17.0171 195.488 16.9707H195.725C195.978 16.9398 196.227 16.8814 196.467 16.7967L195.18 20.1988H196.878L199.082 14.6605C199.252 14.2359 199.381 13.7962 199.469 13.3471C199.538 12.9769 199.567 12.6002 199.555 12.2237C199.568 11.6683 199.449 11.1179 199.208 10.6176ZM197.534 13.9722C197.432 14.2251 197.278 14.4541 197.083 14.6447C196.902 14.8183 196.687 14.9529 196.452 15.0403C196.161 15.1477 195.852 15.1909 195.543 15.1668C195.326 15.1482 195.114 15.0975 194.911 15.0165C194.651 14.9154 194.415 14.7619 194.216 14.5656C193.993 14.3383 193.816 14.0695 193.695 13.7744C193.553 13.4203 193.485 13.0404 193.498 12.6588C193.475 12.0801 193.672 11.5144 194.051 11.0764C194.243 10.8838 194.474 10.7346 194.729 10.6391C194.984 10.5436 195.256 10.5038 195.528 10.5226H195.654C195.896 10.5348 196.132 10.5967 196.349 10.7046C196.614 10.8384 196.851 11.024 197.044 11.2505C197.247 11.4855 197.41 11.7529 197.526 12.0417C197.638 12.3263 197.697 12.6295 197.699 12.9357C197.712 13.2894 197.653 13.6421 197.526 13.9722H197.534Z" fill="#F9F6F0"/>
<path d="M218.052 9.01154V8.79001H217.815L208.425 0H183.286L172.876 9.89767L195.78 39.0922L219.039 9.89767L218.052 9.01154ZM207.453 2.46848L214.214 8.79792H204.657L198.758 2.46848H207.453ZM184.265 2.46848H192.953L186.69 8.79792H177.615L184.265 2.46848ZM177.07 11.2506H186.327L192.558 31.0301L177.07 11.2506ZM188.625 10.3565L195.867 3.00648L202.699 10.3328L195.709 32.9527L188.625 10.3565ZM198.892 31.2121L205.06 11.2506H214.798L198.892 31.2121Z" fill="#F9F6F0"/>
<path d="M19.9658 37.0193C15.3166 37.0193 11.7757 35.2629 9.34318 31.75C6.74478 27.9998 6.42097 23.5613 6.18403 19.8823C6.18403 19.5738 6.18403 19.3127 6.14454 19.1624L3.10386 24.3762L0 19.4867C0 21.0691 0.173753 26.3463 2.73266 30.6345C3.39381 31.717 4.15254 32.7366 4.99935 33.6805C8.35858 37.3727 12.7761 39.2188 18.252 39.2188C24.6545 39.2188 29.5538 37.5019 32.9499 34.0682L31.6626 32.8181C28.4078 35.6046 24.2464 37.0992 19.9658 37.0193Z" fill="#F9F6F0"/>
<path d="M6.13664 19.1466C6.01429 15.2526 7.13783 11.4214 9.34318 8.21247C10.2743 6.84118 11.4757 5.67532 12.8735 4.78666C14.95 3.55409 17.3319 2.93426 19.7447 2.9986C23.7831 2.9986 27.8058 4.43063 31.8126 7.2947L32.8314 5.96552C29.1194 2.51598 25.2416 0.791202 21.1979 0.791202C18.8996 0.791202 11.7678 0.261111 6.01818 5.53828C0.268527 10.8155 0 18.1972 0 19.4868L3.10386 14.178L6.13664 19.1466Z" fill="#F9F6F0"/>
<path d="M47.2292 1.11548H41.9692V38.7361H61.011V37.0667H47.2292V1.11548Z" fill="#F9F6F0"/>
<path d="M84.4676 0.474621C78.8864 0.474621 74.361 2.36554 70.8912 6.14738C67.4214 9.92923 65.6891 14.6288 65.6944 20.2462C65.5498 25.3513 67.4068 30.31 70.8675 34.0602C74.3162 37.784 78.7601 39.646 84.1991 39.646C90.0277 39.646 94.8112 37.8368 98.5495 34.2185C102.288 30.6001 104.157 25.8715 104.157 20.0326C104.157 14.2992 102.314 9.60484 98.6285 5.94959C94.9428 2.29434 90.2225 0.469346 84.4676 0.474621ZM94.9323 31.8528C92.4997 35.7296 89.0773 37.668 84.6651 37.668C80.3739 37.668 76.9936 35.785 74.5242 32.019C72.2876 28.5234 71.1486 24.4364 71.2545 20.2858C71.2545 15.5387 72.2733 11.4852 74.3109 8.12533C76.754 4.13251 80.2107 2.1361 84.6809 2.1361C89.151 2.1361 92.5735 4.07449 94.9481 7.95127C97.1259 11.5464 98.2228 15.6944 98.1072 19.8981C98.2161 24.1042 97.1109 28.2525 94.9244 31.8449L94.9323 31.8528Z" fill="#F9F6F0"/>
<path d="M160.761 6.70917C159.37 4.91329 157.576 3.471 155.525 2.49917C153.473 1.52735 151.222 1.05333 148.954 1.11553H132.969C132.969 7.23926 132.969 13.363 132.969 19.4867L136.388 14.0671L139.84 19.1228V2.78492H148.796C152.55 2.78492 155.356 4.84462 157.215 8.96404C158.688 12.4438 159.402 16.1987 159.308 19.9773C159.396 23.7446 158.665 27.4861 157.168 30.943C155.272 35.0255 152.482 37.0668 148.796 37.0668H139.84V19.1228L136.499 24.4316L132.969 19.4867C132.969 22.7306 132.969 25.977 132.969 29.2262C132.998 30.2483 132.821 31.2659 132.448 32.2177C132.075 33.1695 131.513 34.0358 130.797 34.7644C130.094 35.4944 129.247 36.0698 128.31 36.454C127.373 36.8381 126.367 37.0225 125.355 36.9956C124.377 37.0233 123.405 36.8414 122.503 36.462C121.602 36.0827 120.791 35.5147 120.127 34.7961C118.759 33.3479 118.018 31.417 118.065 29.424V1.11553H112.805V29.3844C112.764 30.7607 113.042 32.1278 113.62 33.3774C114.197 34.6271 115.056 35.725 116.13 36.5841C118.31 38.3036 121.026 39.1974 123.799 39.108C126.622 39.2203 129.385 38.2722 131.547 36.4496C132.561 35.5385 133.359 34.4124 133.884 33.1532C134.408 31.8941 134.646 30.5336 134.58 29.1708V38.7678H148.796C151.159 38.853 153.507 38.3532 155.631 37.3127C157.755 36.2721 159.59 34.7229 160.974 32.8023C163.607 29.184 164.923 24.7006 164.923 19.3522C165.069 14.7778 163.595 10.2991 160.761 6.70917Z" fill="#F9F6F0"/>
</g>
<defs>
<clipPath id="clip0">
<rect width="219" height="61" fill="white"/>
</clipPath>
</defs>
</svg>
